<?xml version="1.0" encoding="UTF-8"?>
<svg xmlns="http://www.w3.org/2000/svg" xmlns:xlink="http://www.w3.org/1999/xlink" width="172.8pt" height="172.8pt" viewBox="0 0 288 288" version="1.1">
<g id="surface56">
<rect x="0" y="0" width="288" height="288" style="fill:rgb(100%,100%,100%);fill-opacity:1;stroke:none;"/>
<path style="fill:none;stroke-width:6;stroke-linecap:round;stroke-linejoin:round;stroke:rgb(88.235294%,41.568627%,52.54902%);stroke-opacity:1;stroke-miterlimit:10;" d="M 72 43.09375 L 72.257812 43.359375 L 72.5 43.628906 L 72.730469 43.902344 L 72.945312 44.175781 L 73.144531 44.449219 L 73.335938 44.730469 L 73.511719 45.011719 L 73.671875 45.296875 L 73.824219 45.585938 L 73.964844 45.878906 L 74.09375 46.175781 L 74.214844 46.472656 L 74.324219 46.777344 L 74.421875 47.085938 L 74.511719 47.394531 L 74.589844 47.710938 L 74.664062 48.03125 L 74.726562 48.351562 L 74.785156 48.679688 L 74.832031 49.015625 L 74.875 49.351562 L 74.910156 49.695312 L 74.941406 50.042969 L 74.964844 50.394531 L 74.980469 50.75 L 74.996094 51.113281 L 75.011719 51.855469 L 75.011719 54.429688 L 75.007812 55.710938 L 75.007812 58.980469 L 75.003906 60.925781 L 75.003906 63.054688 L 75 65.347656 L 74.996094 67.777344 L 74.996094 70.332031 L 74.992188 72.984375 L 74.988281 75.722656 L 74.988281 78.519531 L 74.984375 81.359375 L 74.980469 84.222656 L 74.980469 87.085938 L 74.976562 89.929688 L 74.972656 92.734375 L 74.972656 95.480469 L 74.96875 98.152344 L 74.96875 100.722656 L 74.964844 103.171875 L 74.964844 105.488281 L 74.960938 107.640625 L 74.960938 114.273438 "/>
<path style="fill:none;stroke-width:6;stroke-linecap:round;stroke-linejoin:round;stroke:rgb(88.235294%,41.568627%,52.54902%);stroke-opacity:1;stroke-miterlimit:10;" d="M 76.464844 47.109375 L 78.132812 46.898438 L 79.808594 46.683594 L 81.496094 46.46875 L 83.195312 46.253906 L 84.898438 46.03125 L 86.613281 45.8125 L 88.332031 45.589844 L 90.058594 45.363281 L 91.789062 45.136719 L 93.523438 44.910156 L 95.265625 44.679688 L 97.011719 44.445312 L 98.757812 44.214844 L 100.507812 43.980469 L 105.757812 43.265625 L 107.511719 43.023438 L 109.261719 42.78125 L 111.007812 42.539062 L 112.753906 42.292969 L 114.496094 42.046875 L 116.234375 41.800781 L 117.964844 41.550781 L 119.691406 41.300781 L 121.414062 41.050781 L 123.128906 40.800781 L 124.835938 40.546875 L 126.535156 40.292969 L 126.96875 40.226562 L 127.394531 40.164062 L 127.820312 40.097656 L 128.238281 40.03125 L 128.65625 39.96875 L 129.070312 39.90625 L 129.480469 39.847656 L 129.886719 39.789062 L 130.699219 39.679688 L 131.503906 39.585938 L 131.902344 39.542969 L 132.304688 39.507812 L 132.703125 39.476562 L 133.101562 39.449219 L 133.503906 39.425781 L 133.902344 39.410156 L 134.304688 39.402344 L 134.710938 39.398438 L 135.113281 39.40625 L 135.519531 39.417969 L 135.929688 39.4375 L 136.34375 39.464844 L 136.757812 39.5 L 137.175781 39.546875 L 137.597656 39.601562 L 138.023438 39.664062 L 138.453125 39.738281 "/>
<path style="fill:none;stroke-width:6;stroke-linecap:round;stroke-linejoin:round;stroke:rgb(88.235294%,41.568627%,52.54902%);stroke-opacity:1;stroke-miterlimit:10;" d="M 77.996094 71.710938 L 79.0625 71.613281 L 80.183594 71.5 L 81.367188 71.371094 L 82.601562 71.226562 L 83.886719 71.070312 L 85.214844 70.902344 L 86.582031 70.722656 L 87.984375 70.53125 L 89.417969 70.332031 L 90.875 70.121094 L 92.359375 69.90625 L 93.855469 69.6875 L 95.367188 69.460938 L 96.886719 69.230469 L 99.933594 68.769531 L 101.453125 68.535156 L 102.960938 68.300781 L 104.457031 68.070312 L 105.933594 67.84375 L 107.386719 67.621094 L 108.8125 67.402344 L 110.207031 67.1875 L 111.566406 66.984375 L 112.882812 66.789062 L 114.15625 66.601562 L 115.378906 66.425781 L 116.546875 66.257812 L 117.65625 66.109375 L 118.5 65.992188 L 118.929688 65.929688 L 119.796875 65.796875 L 120.234375 65.730469 L 121.117188 65.597656 L 122.007812 65.464844 L 122.453125 65.402344 L 122.902344 65.34375 L 123.351562 65.289062 L 123.804688 65.238281 L 124.253906 65.191406 L 124.703125 65.148438 L 125.152344 65.113281 L 125.601562 65.082031 L 126.050781 65.0625 L 126.5 65.046875 L 126.945312 65.039062 L 127.386719 65.042969 L 127.828125 65.054688 L 128.269531 65.078125 L 128.707031 65.113281 L 129.140625 65.15625 L 129.570312 65.214844 L 129.996094 65.285156 L 130.417969 65.367188 "/>
<path style="fill:none;stroke-width:6;stroke-linecap:round;stroke-linejoin:round;stroke:rgb(88.235294%,41.568627%,52.54902%);stroke-opacity:1;stroke-miterlimit:10;" d="M 78.683594 94.140625 L 79.703125 94.054688 L 80.78125 93.953125 L 81.914062 93.839844 L 83.101562 93.714844 L 84.335938 93.582031 L 85.613281 93.4375 L 86.929688 93.285156 L 88.285156 93.125 L 89.667969 92.957031 L 91.078125 92.785156 L 92.511719 92.605469 L 93.964844 92.421875 L 95.433594 92.234375 L 96.914062 92.042969 L 98.398438 91.851562 L 99.886719 91.65625 L 101.375 91.464844 L 102.851562 91.269531 L 104.324219 91.074219 L 105.78125 90.882812 L 107.21875 90.691406 L 108.636719 90.507812 L 110.023438 90.324219 L 111.382812 90.144531 L 112.707031 89.972656 L 113.996094 89.808594 L 115.238281 89.652344 L 116.433594 89.5 L 117.578125 89.359375 L 118.039062 89.300781 L 118.503906 89.234375 L 118.972656 89.167969 L 119.449219 89.09375 L 119.929688 89.023438 L 120.417969 88.945312 L 120.90625 88.871094 L 121.398438 88.792969 L 122.390625 88.644531 L 122.890625 88.570312 L 123.390625 88.503906 L 123.894531 88.4375 L 124.398438 88.375 L 124.902344 88.316406 L 125.40625 88.265625 L 125.90625 88.222656 L 126.410156 88.183594 L 126.910156 88.15625 L 127.410156 88.136719 L 127.90625 88.125 L 128.398438 88.121094 L 128.890625 88.132812 L 129.375 88.152344 L 129.859375 88.1875 L 130.335938 88.234375 L 130.808594 88.296875 L 131.277344 88.371094 L 131.738281 88.460938 "/>
<path style="fill:none;stroke-width:6;stroke-linecap:round;stroke-linejoin:round;stroke:rgb(88.235294%,41.568627%,52.54902%);stroke-opacity:1;stroke-miterlimit:10;" d="M 37.996094 118.953125 L 38.496094 119.074219 L 39.003906 119.1875 L 39.515625 119.28125 L 40.03125 119.367188 L 40.546875 119.4375 L 41.070312 119.496094 L 41.59375 119.542969 L 42.121094 119.582031 L 42.648438 119.609375 L 43.179688 119.628906 L 43.714844 119.640625 L 44.246094 119.640625 L 44.78125 119.636719 L 45.316406 119.625 L 45.851562 119.605469 L 46.386719 119.582031 L 47.457031 119.519531 L 47.992188 119.480469 L 48.523438 119.441406 L 49.054688 119.398438 L 49.585938 119.351562 L 50.113281 119.304688 L 51.160156 119.210938 L 51.679688 119.164062 L 52.195312 119.117188 L 52.707031 119.074219 L 53.214844 119.03125 L 55.390625 118.84375 L 57.644531 118.636719 L 59.976562 118.40625 L 62.378906 118.15625 L 64.847656 117.890625 L 67.375 117.609375 L 69.960938 117.316406 L 72.601562 117.007812 L 75.285156 116.691406 L 78.015625 116.363281 L 80.785156 116.03125 L 83.589844 115.691406 L 86.421875 115.347656 L 89.28125 115.003906 L 92.160156 114.65625 L 95.054688 114.3125 L 97.960938 113.972656 L 100.871094 113.632812 L 103.789062 113.304688 L 106.703125 112.980469 L 109.609375 112.667969 L 112.503906 112.367188 L 115.386719 112.078125 L 118.246094 111.800781 L 121.082031 111.542969 L 123.886719 111.304688 L 126.660156 111.082031 L 129.394531 110.882812 L 132.082031 110.707031 L 132.675781 110.671875 L 133.855469 110.601562 L 134.445312 110.5625 L 135.039062 110.527344 L 135.628906 110.496094 L 136.21875 110.460938 L 136.8125 110.429688 L 137.992188 110.375 L 138.585938 110.351562 L 139.175781 110.332031 L 139.769531 110.3125 L 140.359375 110.300781 L 140.949219 110.292969 L 141.539062 110.289062 L 142.132812 110.289062 L 142.722656 110.292969 L 143.3125 110.304688 L 143.902344 110.324219 L 144.492188 110.347656 L 145.082031 110.378906 L 145.671875 110.417969 L 146.261719 110.460938 L 146.851562 110.515625 L 147.441406 110.578125 L 148.027344 110.648438 L 148.617188 110.726562 L 149.207031 110.8125 "/>
<path style="fill:none;stroke-width:6;stroke-linecap:round;stroke-linejoin:round;stroke:rgb(66.666667%,56.470588%,0%);stroke-opacity:1;stroke-miterlimit:10;" d="M 81.855469 122.519531 L 81.882812 122.738281 L 81.894531 122.957031 L 81.898438 123.175781 L 81.886719 123.394531 L 81.867188 123.609375 L 81.832031 123.828125 L 81.792969 124.042969 L 81.738281 124.261719 L 81.679688 124.472656 L 81.609375 124.6875 L 81.535156 124.898438 L 81.449219 125.109375 L 81.355469 125.316406 L 81.257812 125.519531 L 81.15625 125.726562 L 81.046875 125.925781 L 80.933594 126.125 L 80.691406 126.515625 L 80.566406 126.703125 L 80.4375 126.890625 L 80.304688 127.074219 L 80.175781 127.253906 L 80.039062 127.433594 L 79.90625 127.605469 L 79.769531 127.773438 L 79.636719 127.9375 L 79.503906 128.097656 L 79.371094 128.253906 L 78.644531 129.085938 L 77.9375 129.894531 L 77.242188 130.675781 L 76.5625 131.433594 L 75.898438 132.171875 L 75.242188 132.890625 L 74.597656 133.589844 L 73.960938 134.273438 L 73.335938 134.945312 L 72.714844 135.601562 L 72.097656 136.246094 L 71.488281 136.882812 L 70.878906 137.515625 L 69.660156 138.757812 L 69.050781 139.375 L 67.824219 140.609375 L 66.574219 141.859375 L 65.9375 142.492188 L 65.289062 143.132812 L 64.632812 143.78125 L 63.964844 144.445312 L 63.285156 145.121094 L 62.589844 145.808594 L 61.878906 146.515625 L 61.148438 147.242188 L 60.402344 147.988281 L 60.128906 148.277344 L 59.882812 148.574219 L 59.660156 148.875 L 59.460938 149.183594 L 59.289062 149.492188 L 59.144531 149.804688 L 59.023438 150.113281 L 58.929688 150.421875 L 58.859375 150.726562 L 58.820312 151.023438 L 58.804688 151.316406 L 58.816406 151.597656 L 58.855469 151.871094 L 58.921875 152.132812 L 59.015625 152.378906 L 59.136719 152.609375 L 59.285156 152.828125 L 59.460938 153.023438 L 59.667969 153.199219 L 59.902344 153.355469 L 60.164062 153.488281 L 60.457031 153.59375 L 60.78125 153.675781 L 61.128906 153.726562 L 61.511719 153.75 L 61.921875 153.742188 L 62.363281 153.699219 L 62.832031 153.625 L 63.332031 153.511719 L 65.324219 153.007812 L 67.3125 152.503906 L 71.28125 151.496094 L 73.269531 150.992188 L 75.265625 150.484375 L 77.265625 149.976562 L 79.273438 149.464844 L 81.296875 148.949219 L 83.328125 148.429688 L 85.375 147.90625 L 87.441406 147.375 L 89.527344 146.835938 L 91.632812 146.289062 L 93.761719 145.738281 L 95.917969 145.175781 L 98.097656 144.601562 L 100.3125 144.019531 L 102.554688 143.425781 L 104.832031 142.824219 L 107.144531 142.203125 L 109.492188 141.574219 L 111.882812 140.929688 L 114.3125 140.273438 L 116.789062 139.597656 L 119.308594 138.90625 L 121.878906 138.199219 L 124.5 137.476562 L 127.167969 136.734375 "/>
<path style="fill:none;stroke-width:6;stroke-linecap:round;stroke-linejoin:round;stroke:rgb(66.666667%,56.470588%,0%);stroke-opacity:1;stroke-miterlimit:10;" d="M 117.894531 124.84375 L 118.601562 125.199219 L 119.335938 125.597656 L 120.089844 126.039062 L 120.863281 126.519531 L 121.652344 127.035156 L 122.453125 127.585938 L 123.261719 128.167969 L 124.078125 128.777344 L 124.894531 129.410156 L 125.710938 130.066406 L 126.527344 130.742188 L 127.332031 131.433594 L 128.128906 132.136719 L 128.914062 132.851562 L 129.679688 133.574219 L 130.429688 134.304688 L 131.152344 135.03125 L 131.851562 135.761719 L 132.523438 136.484375 L 133.160156 137.203125 L 133.761719 137.914062 L 134.324219 138.609375 L 134.847656 139.289062 L 135.324219 139.953125 L 135.75 140.59375 L 136.128906 141.210938 L 136.449219 141.800781 L 136.714844 142.363281 L 136.917969 142.890625 "/>
<path style="fill:none;stroke-width:6;stroke-linecap:round;stroke-linejoin:round;stroke:rgb(0%,66.666667%,35.294118%);stroke-opacity:1;stroke-miterlimit:10;" d="M 219.9375 34.347656 L 219.835938 34.585938 L 219.734375 34.816406 L 219.632812 35.042969 L 219.53125 35.265625 L 219.425781 35.484375 L 219.320312 35.695312 L 219.214844 35.902344 L 219.109375 36.105469 L 219 36.304688 L 218.773438 36.6875 L 218.65625 36.875 L 218.414062 37.242188 L 218.289062 37.417969 L 218.160156 37.59375 L 218.027344 37.769531 L 217.890625 37.941406 L 217.601562 38.277344 L 217.453125 38.441406 L 217.296875 38.605469 L 217.136719 38.769531 L 216.96875 38.933594 L 216.800781 39.09375 L 216.621094 39.253906 L 216.4375 39.417969 L 216.25 39.578125 L 216.054688 39.738281 L 215.164062 40.4375 L 214.222656 41.140625 L 213.234375 41.851562 L 212.195312 42.570312 L 211.101562 43.292969 L 209.953125 44.023438 L 208.75 44.761719 L 207.492188 45.503906 L 206.171875 46.253906 L 204.792969 47.007812 L 203.351562 47.769531 L 201.851562 48.535156 L 200.28125 49.304688 L 198.648438 50.082031 L 196.949219 50.863281 L 195.179688 51.652344 L 193.34375 52.441406 L 191.433594 53.238281 L 189.449219 54.039062 L 187.390625 54.84375 L 185.257812 55.65625 L 183.046875 56.46875 L 180.757812 57.289062 L 178.390625 58.109375 L 175.941406 58.9375 L 173.40625 59.765625 L 170.789062 60.597656 L 168.085938 61.4375 L 165.296875 62.277344 "/>
<path style="fill:none;stroke-width:6;stroke-linecap:round;stroke-linejoin:round;stroke:rgb(0%,66.666667%,35.294118%);stroke-opacity:1;stroke-miterlimit:10;" d="M 228.179688 68.777344 L 228.144531 69.003906 L 228.101562 69.234375 L 228.042969 69.460938 L 227.980469 69.6875 L 227.90625 69.914062 L 227.824219 70.136719 L 227.734375 70.359375 L 227.636719 70.578125 L 227.53125 70.792969 L 227.421875 71.007812 L 227.300781 71.21875 L 227.175781 71.429688 L 227.046875 71.636719 L 226.914062 71.835938 L 226.773438 72.035156 L 226.628906 72.230469 L 226.480469 72.421875 L 226.328125 72.609375 L 226.171875 72.792969 L 226.015625 72.96875 L 225.855469 73.140625 L 225.691406 73.308594 L 225.527344 73.472656 L 225.363281 73.628906 L 225.195312 73.78125 L 225.03125 73.925781 L 224.863281 74.066406 L 224.699219 74.199219 L 224.535156 74.324219 L 223.394531 75.160156 L 222.171875 76.023438 L 220.871094 76.917969 L 219.492188 77.839844 L 218.03125 78.785156 L 216.492188 79.753906 L 214.875 80.746094 L 213.175781 81.757812 L 211.402344 82.785156 L 209.546875 83.828125 L 207.613281 84.886719 L 205.597656 85.957031 L 203.507812 87.035156 L 201.335938 88.121094 L 199.089844 89.210938 L 196.761719 90.308594 L 194.355469 91.40625 L 191.871094 92.503906 L 189.308594 93.597656 L 186.667969 94.6875 L 183.949219 95.773438 L 181.15625 96.851562 L 178.28125 97.917969 L 175.328125 98.972656 L 172.296875 100.011719 L 169.191406 101.039062 L 166.007812 102.042969 L 162.742188 103.03125 L 159.402344 103.996094 "/>
<path style="fill:none;stroke-width:6;stroke-linecap:round;stroke-linejoin:round;stroke:rgb(0%,66.666667%,35.294118%);stroke-opacity:1;stroke-miterlimit:10;" d="M 237.347656 109.097656 L 237.289062 109.324219 L 237.21875 109.550781 L 237.140625 109.777344 L 237.054688 110.003906 L 236.964844 110.230469 L 236.867188 110.453125 L 236.761719 110.675781 L 236.652344 110.898438 L 236.535156 111.117188 L 236.414062 111.332031 L 236.289062 111.546875 L 236.15625 111.753906 L 236.019531 111.960938 L 235.882812 112.160156 L 235.738281 112.359375 L 235.589844 112.550781 L 235.441406 112.738281 L 235.289062 112.917969 L 235.132812 113.09375 L 234.976562 113.261719 L 234.816406 113.421875 L 234.65625 113.578125 L 234.492188 113.726562 L 234.332031 113.867188 L 234.167969 113.996094 L 234.003906 114.121094 L 233.84375 114.234375 L 233.679688 114.339844 L 233.519531 114.433594 L 232.195312 115.179688 L 230.832031 115.941406 L 229.417969 116.726562 L 227.953125 117.527344 L 226.429688 118.34375 L 224.847656 119.179688 L 223.199219 120.03125 L 221.484375 120.894531 L 219.695312 121.777344 L 217.832031 122.671875 L 215.886719 123.578125 L 213.855469 124.496094 L 211.734375 125.429688 L 209.519531 126.371094 L 207.210938 127.324219 L 204.796875 128.285156 L 202.277344 129.257812 L 199.648438 130.234375 L 196.90625 131.222656 L 194.046875 132.214844 L 191.0625 133.214844 L 187.957031 134.222656 L 184.714844 135.234375 L 181.34375 136.246094 L 177.828125 137.265625 L 174.175781 138.285156 L 170.371094 139.308594 L 166.417969 140.332031 L 162.308594 141.359375 "/>
<path style="fill:none;stroke-width:6;stroke-linecap:round;stroke-linejoin:round;stroke:rgb(0%,65.098039%,79.215686%);stroke-opacity:1;stroke-miterlimit:10;" d="M 57.441406 175.019531 L 58.136719 175.253906 L 58.839844 175.46875 L 59.554688 175.664062 L 60.273438 175.839844 L 61 175.996094 L 61.730469 176.136719 L 62.46875 176.257812 L 63.207031 176.363281 L 63.957031 176.449219 L 64.707031 176.523438 L 65.457031 176.582031 L 66.214844 176.625 L 66.972656 176.65625 L 67.734375 176.675781 L 68.492188 176.683594 L 69.253906 176.675781 L 70.015625 176.660156 L 70.773438 176.636719 L 71.53125 176.597656 L 72.289062 176.554688 L 73.042969 176.5 L 73.796875 176.441406 L 74.542969 176.375 L 75.285156 176.300781 L 76.027344 176.222656 L 76.757812 176.140625 L 77.488281 176.050781 L 78.207031 175.960938 L 78.921875 175.863281 L 82.960938 175.324219 L 87.074219 174.765625 L 91.257812 174.191406 L 95.507812 173.609375 L 99.824219 173.011719 L 104.199219 172.410156 L 108.632812 171.804688 L 113.117188 171.195312 L 117.652344 170.585938 L 122.238281 169.976562 L 126.867188 169.371094 L 131.539062 168.769531 L 136.246094 168.179688 L 140.988281 167.601562 L 145.757812 167.03125 L 150.558594 166.480469 L 155.386719 165.945312 L 160.230469 165.425781 L 165.097656 164.933594 L 169.976562 164.460938 L 174.867188 164.019531 L 179.765625 163.601562 L 184.671875 163.21875 L 189.578125 162.867188 L 194.480469 162.546875 L 199.382812 162.269531 L 204.273438 162.027344 L 209.152344 161.832031 L 214.019531 161.675781 L 214.765625 161.65625 L 215.515625 161.636719 L 217.753906 161.589844 L 218.5 161.578125 L 219.242188 161.566406 L 219.988281 161.558594 L 220.730469 161.554688 L 221.472656 161.554688 L 222.214844 161.558594 L 223.699219 161.582031 L 224.441406 161.601562 L 225.183594 161.628906 L 225.921875 161.660156 L 226.664062 161.695312 L 227.402344 161.742188 L 228.140625 161.796875 L 228.878906 161.855469 L 229.621094 161.925781 L 230.359375 162.003906 L 231.097656 162.09375 L 231.835938 162.191406 L 232.574219 162.296875 L 233.3125 162.417969 L 234.050781 162.546875 L 234.789062 162.6875 L 235.527344 162.839844 "/>
<path style="fill:none;stroke-width:6;stroke-linecap:round;stroke-linejoin:round;stroke:rgb(0%,65.098039%,79.215686%);stroke-opacity:1;stroke-miterlimit:10;" d="M 135.492188 154.699219 L 135.53125 155.160156 L 135.546875 155.398438 L 135.558594 155.640625 L 135.570312 155.886719 L 135.574219 156.140625 L 135.578125 156.398438 L 135.578125 156.660156 L 135.574219 156.921875 L 135.566406 157.191406 L 135.550781 157.464844 L 135.535156 157.742188 L 135.515625 158.019531 L 135.488281 158.304688 L 135.457031 158.589844 L 135.378906 159.167969 L 135.328125 159.460938 L 135.277344 159.757812 L 135.21875 160.054688 L 135.152344 160.355469 L 135.078125 160.652344 L 135 160.957031 L 134.917969 161.257812 L 134.824219 161.5625 L 134.726562 161.867188 L 134.617188 162.175781 L 134.503906 162.480469 L 134.382812 162.785156 L 133.402344 165.085938 L 132.296875 167.527344 L 131.0625 170.097656 L 129.707031 172.792969 L 128.226562 175.59375 L 126.621094 178.492188 L 124.890625 181.480469 L 123.039062 184.542969 L 121.058594 187.671875 L 118.957031 190.851562 L 116.726562 194.078125 L 114.375 197.335938 L 111.898438 200.613281 L 109.300781 203.90625 L 106.578125 207.195312 L 103.730469 210.472656 L 100.757812 213.726562 L 97.664062 216.949219 L 94.445312 220.125 L 91.101562 223.246094 L 87.636719 226.304688 L 84.050781 229.28125 L 80.335938 232.171875 L 76.503906 234.960938 L 72.542969 237.644531 L 68.464844 240.203125 L 64.261719 242.628906 L 59.933594 244.914062 L 55.484375 247.046875 "/>
<path style="fill:none;stroke-width:6;stroke-linecap:round;stroke-linejoin:round;stroke:rgb(71.372549%,45.882353%,87.843137%);stroke-opacity:1;stroke-miterlimit:10;" d="M 125.980469 194.097656 L 126.386719 194.125 L 126.792969 194.148438 L 127.195312 194.167969 L 127.597656 194.183594 L 128 194.195312 L 128.398438 194.203125 L 129.195312 194.203125 L 129.59375 194.199219 L 129.992188 194.191406 L 130.78125 194.160156 L 131.175781 194.136719 L 131.964844 194.082031 L 132.355469 194.046875 L 132.75 194.007812 L 133.140625 193.964844 L 133.535156 193.917969 L 133.929688 193.867188 L 134.320312 193.8125 L 134.714844 193.753906 L 135.105469 193.691406 L 135.5 193.625 L 136.289062 193.476562 L 137.078125 193.3125 L 137.472656 193.222656 L 138.753906 192.933594 L 140.054688 192.636719 L 141.382812 192.335938 L 142.730469 192.027344 L 144.097656 191.714844 L 145.480469 191.398438 L 146.878906 191.078125 L 148.289062 190.757812 L 149.710938 190.433594 L 151.140625 190.105469 L 152.574219 189.777344 L 154.015625 189.445312 L 155.453125 189.117188 L 156.894531 188.789062 L 158.332031 188.460938 L 159.765625 188.132812 L 161.191406 187.804688 L 162.609375 187.484375 L 164.015625 187.164062 L 165.40625 186.847656 L 166.785156 186.535156 L 168.144531 186.226562 L 169.488281 185.921875 L 170.804688 185.625 L 172.101562 185.332031 L 173.371094 185.050781 L 174.613281 184.773438 L 175.824219 184.503906 L 177 184.242188 L 177.710938 184.101562 L 178.382812 184.003906 L 179.011719 183.949219 L 179.601562 183.929688 L 180.148438 183.953125 L 180.65625 184.011719 L 181.125 184.105469 L 181.554688 184.230469 L 181.945312 184.390625 L 182.300781 184.578125 L 182.613281 184.796875 L 182.894531 185.042969 L 183.136719 185.316406 L 183.34375 185.617188 L 183.511719 185.9375 L 183.648438 186.28125 L 183.746094 186.644531 L 183.8125 187.023438 L 183.84375 187.425781 L 183.84375 187.839844 L 183.808594 188.269531 L 183.738281 188.714844 L 183.640625 189.167969 L 183.507812 189.636719 L 183.347656 190.109375 L 183.152344 190.589844 L 182.929688 191.078125 L 182.675781 191.566406 L 182.390625 192.0625 L 181.214844 193.914062 L 179.835938 195.902344 L 178.261719 198.023438 L 176.492188 200.261719 L 174.535156 202.605469 L 172.394531 205.042969 L 170.074219 207.558594 L 167.585938 210.152344 L 164.925781 212.800781 L 162.105469 215.496094 L 159.132812 218.230469 L 156.003906 220.984375 L 152.730469 223.753906 L 149.3125 226.523438 L 145.761719 229.285156 L 142.078125 232.019531 L 138.269531 234.722656 L 134.339844 237.382812 L 130.296875 239.984375 L 126.144531 242.515625 L 121.882812 244.964844 L 117.523438 247.324219 L 113.070312 249.578125 L 108.527344 251.71875 L 103.902344 253.734375 L 99.195312 255.609375 L 94.417969 257.332031 L 89.566406 258.894531 L 84.65625 260.285156 "/>
<path style="fill:none;stroke-width:6;stroke-linecap:round;stroke-linejoin:round;stroke:rgb(71.372549%,45.882353%,87.843137%);stroke-opacity:1;stroke-miterlimit:10;" d="M 114.355469 206.515625 L 115.550781 206.96875 L 117.03125 207.597656 L 118.769531 208.386719 L 120.757812 209.324219 L 122.972656 210.402344 L 125.402344 211.609375 L 128.027344 212.9375 L 130.832031 214.375 L 133.800781 215.90625 L 136.914062 217.527344 L 140.15625 219.222656 L 143.515625 220.988281 L 146.96875 222.808594 L 150.5 224.671875 L 154.09375 226.570312 L 157.734375 228.496094 L 161.40625 230.429688 L 165.089844 232.371094 L 168.769531 234.304688 L 172.425781 236.21875 L 176.050781 238.105469 L 179.617188 239.953125 L 183.113281 241.75 L 186.523438 243.488281 L 189.828125 245.152344 L 193.015625 246.738281 L 196.0625 248.234375 L 198.957031 249.625 L 201.679688 250.902344 L 202.515625 251.292969 L 203.363281 251.683594 L 204.214844 252.078125 L 205.074219 252.46875 L 205.9375 252.863281 L 206.8125 253.253906 L 207.6875 253.640625 L 208.574219 254.027344 L 209.460938 254.410156 L 210.355469 254.785156 L 211.253906 255.15625 L 212.152344 255.519531 L 213.058594 255.878906 L 213.96875 256.226562 L 214.882812 256.566406 L 215.796875 256.898438 L 216.714844 257.21875 L 217.632812 257.527344 L 218.554688 257.824219 L 219.476562 258.105469 L 220.398438 258.375 L 221.324219 258.628906 L 222.25 258.863281 L 223.171875 259.085938 L 224.097656 259.289062 L 225.019531 259.476562 L 225.945312 259.640625 L 226.863281 259.789062 L 227.785156 259.914062 "/>
</g>
</svg>
